<?xml version="1.0" encoding="UTF-8"?><svg id="b" xmlns="http://www.w3.org/2000/svg" viewBox="0 0 250 49.19"><g id="c"><g id="d"><path id="e" d="m2.44,10.98h12.31v-2.44h-3.77V2.44h5.7v12.31h2.44V0h-10.58v8.54H0v10.58h6.51v-2.44H2.44v-5.7Z" fill="#54c147" stroke-width="0"/><path id="f" d="m21.15,8.54v2.44h4.07v5.7h-12.31v2.44h3.77v6.1h-5.7v-12.31h-2.44v14.75h10.58v-8.54h8.54v-10.58h-6.51Z" fill="#54c147" stroke-width="0"/></g><path d="m36.88,26.21c1.49-.16,2.42-.44,2.79-.82.37-.39.56-1.4.56-3.05V5.82c0-1.36-.21-2.25-.62-2.66-.42-.41-1.33-.66-2.73-.76v-.71h10.57v.71c-1.39.1-2.3.35-2.72.76-.42.41-.63,1.3-.63,2.66v7.43h11.58v-7.43c0-1.36-.2-2.25-.61-2.66-.41-.41-1.32-.66-2.74-.76v-.71h10.57v.71c-1.4.1-2.31.35-2.73.76-.42.41-.62,1.3-.62,2.66v16.96c0,1.38.21,2.27.62,2.66.42.39,1.32.65,2.73.77v.71h-10.57v-.71c1.5-.15,2.44-.42,2.8-.82.37-.4.55-1.41.55-3.06v-7.41h-11.58v7.86c0,1.38.21,2.27.63,2.67.42.39,1.33.65,2.72.76v.71h-10.57v-.71Z" fill="#29a6d1" stroke-width="0"/><path d="m77.13,11.27c1.32,1.21,1.97,2.93,1.97,5.15h-11.82c.12,2.87.78,4.97,1.95,6.28,1.18,1.31,2.58,1.97,4.19,1.97,1.3,0,2.4-.34,3.3-1.02.89-.68,1.72-1.65,2.48-2.9l.65.22c-.51,1.58-1.46,3.04-2.86,4.38-1.4,1.34-3.11,2.01-5.13,2.01-2.33,0-4.14-.88-5.41-2.64-1.27-1.76-1.91-3.79-1.91-6.09,0-2.49.74-4.65,2.22-6.46,1.48-1.81,3.4-2.72,5.77-2.72,1.75,0,3.28.6,4.6,1.81Zm-8.92,1.42c-.4.67-.68,1.51-.86,2.53h7.86c-.14-1.24-.37-2.17-.71-2.77-.61-1.09-1.63-1.64-3.05-1.64s-2.49.63-3.24,1.88Z" fill="#29a6d1" stroke-width="0"/><path d="m84.82,18.71c1.14-.74,3.42-1.76,6.83-3.03v-1.58c0-1.27-.12-2.15-.37-2.64-.42-.83-1.3-1.25-2.63-1.25-.63,0-1.23.16-1.81.48-.57.33-.86.79-.86,1.38,0,.15.03.4.09.75.06.35.09.58.09.68,0,.7-.23,1.18-.69,1.45-.26.16-.57.24-.93.24-.56,0-.99-.18-1.28-.55-.3-.37-.45-.77-.45-1.22,0-.87.54-1.78,1.61-2.73s2.65-1.42,4.72-1.42c2.41,0,4.04.78,4.9,2.35.46.86.69,2.1.69,3.74v7.46c0,.72.05,1.22.15,1.49.16.48.5.73,1.01.73.29,0,.52-.04.71-.13s.51-.3.97-.63v.97c-.4.48-.83.88-1.28,1.19-.7.47-1.4.71-2.12.71-.84,0-1.46-.27-1.83-.82s-.59-1.2-.62-1.95c-.94.82-1.75,1.43-2.42,1.82-1.13.67-2.2,1.01-3.22,1.01-1.07,0-1.99-.38-2.77-1.13-.78-.75-1.17-1.7-1.17-2.86,0-1.8.9-3.3,2.7-4.51Zm6.83-2.1c-1.43.47-2.61.99-3.54,1.56-1.79,1.1-2.68,2.36-2.68,3.76,0,1.13.37,1.96,1.12,2.49.48.35,1.02.52,1.62.52.82,0,1.6-.23,2.36-.69.75-.46,1.13-1.04,1.13-1.75v-5.9Z" fill="#29a6d1" stroke-width="0"/><path d="m98.43,26.4c1.15-.11,1.94-.34,2.35-.7.41-.35.61-1.05.61-2.08V5.43c0-.82-.07-1.38-.2-1.69-.25-.52-.75-.78-1.51-.78-.17,0-.36.02-.57.06-.2.04-.46.09-.77.17v-.61c1.68-.45,3.69-1.04,6.05-1.79.09,0,.14.04.16.11.02.07.03.24.03.48v22.32c0,1.08.19,1.78.56,2.09.37.32,1.14.52,2.31.61v.52h-9.01v-.52Z" fill="#29a6d1" stroke-width="0"/><path d="m117.94,9.75v1.34h-3.8l-.04,10.72c0,.94.08,1.66.24,2.14.3.86.88,1.28,1.75,1.28.45,0,.83-.11,1.16-.32.33-.21.7-.55,1.13-1.01l.48.41-.41.56c-.65.87-1.33,1.48-2.05,1.84s-1.41.54-2.08.54c-1.46,0-2.46-.65-2.98-1.95-.29-.71-.43-1.69-.43-2.94v-11.28h-2.03c-.06-.04-.11-.07-.14-.11s-.05-.09-.05-.15c0-.12.03-.22.08-.29.06-.07.23-.23.53-.47.86-.71,1.47-1.28,1.85-1.72.38-.44,1.27-1.6,2.67-3.49.16,0,.26.01.29.04.03.03.05.12.05.28v4.58h3.76Z" fill="#29a6d1" stroke-width="0"/><path d="m119.17,26.4c1.02-.14,1.68-.39,2-.75.32-.37.47-1.23.47-2.6V5.17c0-.69-.09-1.21-.27-1.54-.18-.33-.62-.49-1.31-.49-.14,0-.27,0-.4.03-.13.02-.28.04-.44.07v-.67c.55-.16,1.22-.36,2.02-.59.8-.23,1.36-.39,1.67-.49l1.79-.56.04.13v11.43c.78-.89,1.48-1.55,2.09-1.97,1.09-.74,2.27-1.12,3.54-1.12,2.01,0,3.38.84,4.11,2.53.4.89.6,2.07.6,3.52v7.6c0,1.32.15,2.17.46,2.57.3.4.93.66,1.87.78v.52h-8.06v-.52c1.08-.15,1.77-.4,2.08-.76.31-.36.47-1.22.47-2.59v-7.54c0-1.2-.2-2.18-.6-2.92-.4-.74-1.16-1.12-2.28-1.12-.97,0-1.91.35-2.81,1.04-.91.7-1.36,1.15-1.36,1.36v9.18c0,1.39.16,2.26.48,2.61.32.35,1.01.6,2.07.74v.52h-8.21v-.52Z" fill="#29a6d1" stroke-width="0"/><path d="m137.95,34.16c.74,0,1.31-.14,1.68-.42.38-.28.65-.75.83-1.42l5.15-18.17c.12-.45.2-.77.23-.98.03-.2.05-.36.05-.47,0-.41-.15-.72-.46-.92-.3-.2-.75-.3-1.33-.3-.12,0-.24,0-.35,0-.11,0-.23.02-.35.05l-.04-.61,6.03-.88c.08-.01.13.04.17.15-.06.22-.1.39-.14.51l-1.03,3.43c.81-1.09,1.56-1.93,2.24-2.5,1.23-1.05,2.51-1.57,3.84-1.57s2.41.41,3.18,1.24c.77.83,1.16,2.09,1.16,3.79,0,2.92-1.23,5.7-3.68,8.34-2.43,2.62-4.95,3.93-7.57,3.93-.52,0-.96-.05-1.31-.16-.36-.1-.8-.28-1.31-.53l-.3,1.14c-.33,1.27-.55,2.18-.67,2.72-.32,1.43-.48,2.23-.48,2.42,0,.51.16.83.48.97.32.14.96.23,1.92.28v.56h-7.93v-.61Zm17.16-21.06c-.36-.91-1.05-1.36-2.05-1.36-.86,0-1.79.43-2.8,1.28-1.01.86-1.85,2.27-2.53,4.25-.54,1.55-1.05,3.18-1.52,4.87s-.71,2.69-.71,2.99c0,.47.19.82.58,1.05s.85.34,1.39.34c2.16,0,4.07-1.38,5.71-4.15,1.47-2.47,2.21-4.92,2.21-7.35,0-.81-.09-1.45-.28-1.92Z" fill="#54c147" stroke-width="0"/><path d="m167.22,4.34c.05-.16.08-.32.09-.48.01-.16.02-.29.02-.39,0-.42-.17-.68-.51-.77-.34-.09-1.01-.13-2.02-.12v-.61c.56-.07,1.21-.16,1.94-.26.73-.1,1.21-.17,1.43-.2.7-.12,1.55-.31,2.55-.56.09,0,.18.06.26.19l-6.2,22.38c-.14.53-.22.86-.24.97s-.04.22-.04.33c0,.24.04.44.13.61.09.17.25.25.48.25.45,0,1.03-.4,1.75-1.19.72-.79,1.33-1.56,1.82-2.31l.5.35c-1.07,1.58-1.9,2.67-2.5,3.28-1.03,1.03-2.07,1.55-3.12,1.55-.45,0-.85-.11-1.19-.34-.53-.33-.8-.91-.8-1.71,0-.31.05-.73.15-1.25.07-.31.15-.67.26-1.08l5.23-18.62Z" fill="#54c147" stroke-width="0"/><path d="m184.58,10.8c.29.27.51.63.68,1.08l.09.26.42-1.4c.05-.16.09-.27.13-.32s.13-.09.27-.1l2.14-.24c.11,0,.18.02.2.07.02.04.02.12,0,.23-.05.16-.09.29-.12.38-.03.09-.07.23-.12.4l-1.84,6.66c-.4,1.45-.74,2.7-1.02,3.76-.46,1.9-.69,2.99-.69,3.26,0,.17.05.3.14.38.09.08.21.12.34.12.11,0,.24-.04.37-.11s.3-.19.5-.33l.33-.26c.1-.09.22-.19.35-.31.13-.12.29-.26.47-.44l1.22-1.19.45.39c-1.33,1.65-2.39,2.77-3.19,3.36s-1.57.88-2.3.88c-.47,0-.84-.16-1.09-.48-.25-.32-.38-.72-.38-1.21,0-.45.08-1.09.25-1.92.17-.84.33-1.54.49-2.11-.22.37-.6.92-1.12,1.63-.53.71-1.17,1.41-1.94,2.08-.9.81-1.77,1.38-2.6,1.71-.64.22-1.26.34-1.86.34-1,0-1.91-.41-2.73-1.24-.82-.83-1.23-2-1.23-3.51,0-2.61,1.18-5.33,3.54-8.16,2.43-2.94,4.96-4.42,7.57-4.42.99,0,1.76.25,2.3.76Zm-.6.71c-.41-.42-.92-.63-1.51-.63-2.04,0-3.94,1.55-5.7,4.66-1.54,2.73-2.31,5.09-2.31,7.06,0,.99.21,1.72.64,2.17.43.45.96.68,1.59.68,1.87,0,3.67-1.51,5.41-4.53,1.67-2.75,2.51-5.23,2.51-7.44,0-.89-.21-1.55-.62-1.98Z" fill="#54c147" stroke-width="0"/><path d="m190.36,26.92l3.19-11.5c.27-.97.43-1.56.47-1.77s.07-.43.07-.66c0-.36-.1-.65-.31-.85-.2-.21-.6-.31-1.2-.31-.15,0-.29,0-.44.03-.14.02-.3.04-.47.07v-.61c.8-.12,1.37-.22,1.71-.28.34-.06.71-.14,1.1-.22l3.31-.73c.07.05.12.11.15.17l-2.47,8.01c1.52-2.32,2.8-4.05,3.82-5.18,1.8-2,3.41-3,4.84-3,.55,0,1.02.11,1.42.32.76.41,1.14,1.15,1.14,2.22,0,.3-.03.61-.09.93-.06.32-.14.67-.24,1.04l-2.45,8.92c-.05.19-.11.41-.17.68-.06.27-.09.46-.09.57,0,.19.04.35.13.5.09.15.23.22.42.22.31,0,.67-.19,1.07-.57s1.07-1.19,1.98-2.43l.54.48c-1,1.38-1.79,2.35-2.37,2.9-1,.98-1.95,1.47-2.87,1.47-.41,0-.81-.14-1.2-.42-.38-.28-.58-.78-.58-1.52,0-.21.02-.43.05-.67.03-.24.07-.44.12-.61l2.38-9.05c.12-.5.21-.9.25-1.22.04-.32.07-.54.07-.68,0-.3-.07-.56-.21-.77-.14-.22-.4-.33-.76-.33-.94,0-2.13.84-3.56,2.53-.84,1-1.7,2.2-2.56,3.59-.65,1.08-1.16,2.13-1.53,3.15-.37,1.02-.97,2.88-1.78,5.58h-2.86Z" fill="#54c147" stroke-width="0"/><path d="m210.09,21.37h.61c.27,1.5.6,2.6.97,3.3.68,1.28,1.7,1.92,3.05,1.92.76,0,1.39-.27,1.91-.8.52-.53.77-1.24.77-2.12,0-.55-.07-.99-.2-1.34-.13-.35-.3-.66-.49-.95l-1.55-2.29c-.93-1.39-1.51-2.32-1.75-2.79-.36-.71-.54-1.41-.54-2.12,0-1.08.39-2.03,1.16-2.86.78-.83,1.88-1.24,3.3-1.24.61,0,1.3.12,2.09.34s1.32.34,1.6.34c.31,0,.54-.06.69-.19.15-.12.29-.29.41-.5h.54l-.76,5.29h-.61c-.16-1.2-.4-2.11-.73-2.72-.6-1.13-1.54-1.69-2.83-1.69-.55,0-1.03.17-1.46.51-.43.34-.64.84-.64,1.5,0,.51.1.96.29,1.34.19.38.63,1.07,1.31,2.05l1.32,1.9c.68.98,1.17,1.78,1.45,2.4.29.62.43,1.29.43,2.01,0,1.34-.57,2.47-1.71,3.39-1.14.92-2.5,1.38-4.08,1.38-.51,0-1.23-.11-2.18-.32-.94-.21-1.49-.32-1.64-.32-.25,0-.43.06-.55.17-.12.11-.23.28-.33.5h-.61l.74-6.09Z" fill="#54c147" stroke-width="0"/><path d="m226.58,13.38c-.14-.14-.2-.3-.2-.5s.07-.36.21-.5c.14-.14.3-.2.5-.2s.36.07.5.2.2.3.2.5-.07.36-.2.5c-.13.14-.3.21-.5.21s-.37-.07-.5-.21Z" fill="#9e9e9e" stroke-width="0"/><path d="m232.67,7.99c.37.27.56.56.56.87,0,.14-.05.26-.14.38-.1.12-.24.18-.44.18-.14,0-.27-.05-.38-.15-.11-.1-.19-.24-.24-.43l-.07-.3c-.05-.22-.15-.37-.28-.46-.14-.09-.32-.13-.54-.13-.47,0-.87.21-1.19.62-.32.41-.49.96-.49,1.64,0,.62.18,1.18.54,1.68.36.5.84.74,1.45.74.43,0,.81-.14,1.15-.42.19-.16.4-.42.64-.77l.17.11c-.24.5-.48.89-.74,1.18-.5.55-1.08.83-1.73.83s-1.21-.25-1.71-.76-.74-1.2-.74-2.07.27-1.59.81-2.21c.54-.62,1.22-.92,2.05-.92.52,0,.96.13,1.34.4Z" fill="#9e9e9e" stroke-width="0"/><path d="m234.92,8.48c.52-.57,1.19-.85,2.02-.85s1.5.27,2.03.81c.54.54.81,1.25.81,2.14,0,.82-.26,1.54-.78,2.14s-1.19.91-2.02.91-1.46-.29-2.01-.87c-.55-.58-.82-1.31-.82-2.19,0-.82.26-1.52.78-2.08Zm.99-.16c-.41.38-.62,1.02-.62,1.95,0,.74.17,1.42.5,2.06.33.64.8.95,1.39.95.46,0,.82-.21,1.07-.64.25-.43.38-.98.38-1.67s-.16-1.39-.48-2.02c-.32-.63-.78-.95-1.38-.95-.33,0-.61.11-.85.32Z" fill="#9e9e9e" stroke-width="0"/><path d="m240.37,13.27c.32-.03.54-.08.64-.16.16-.12.25-.36.25-.72v-3.2c0-.31-.04-.51-.12-.6-.08-.09-.21-.14-.4-.14-.09,0-.15,0-.2.01-.04,0-.09.02-.15.04v-.22l.45-.15c.16-.05.43-.15.79-.29.37-.14.56-.21.58-.21s.03.01.04.03c0,.02,0,.06,0,.12v.84c.41-.37.76-.63,1.06-.77s.6-.21.92-.21c.43,0,.76.14,1.02.43.13.16.24.37.33.64.31-.31.57-.54.8-.69.39-.26.79-.38,1.2-.38.66,0,1.11.27,1.33.81.13.31.19.79.19,1.45v2.57c0,.29.07.49.2.6s.36.17.7.21v.16h-2.79v-.17c.36-.03.6-.11.71-.22.11-.11.17-.34.17-.68v-2.67c0-.4-.04-.7-.13-.89-.15-.34-.45-.51-.9-.51-.27,0-.54.09-.8.27-.15.1-.34.27-.56.5v3.17c0,.33.06.59.18.76s.37.27.75.28v.16h-2.84v-.16c.39-.05.64-.14.75-.28.11-.14.16-.49.16-1.04v-1.73c0-.63-.04-1.07-.12-1.31-.14-.4-.43-.61-.87-.61-.25,0-.5.07-.74.21-.24.14-.46.32-.64.54v3.39c0,.31.05.53.16.65.11.12.35.18.72.19v.16h-2.82v-.16Z" fill="#9e9e9e" stroke-width="0"/><path d="m74.04,38.54c.46,0,.85.05,1.19.16.34.11.61.26.83.46.22.2.38.44.49.72.11.28.16.59.16.94,0,.45-.07.87-.22,1.25s-.36.7-.65.97c-.28.27-.63.49-1.04.64-.41.15-.89.23-1.42.23h-1.25l-.4,3.23h-1.12l1.05-8.6h2.37Zm-.55,4.48c.34,0,.64-.05.9-.16.26-.1.48-.25.65-.43.18-.19.31-.41.4-.67.09-.26.14-.54.14-.84,0-.23-.03-.44-.1-.62-.07-.18-.17-.34-.31-.47-.14-.13-.31-.23-.52-.3s-.45-.1-.73-.1h-1.25l-.44,3.6h1.25Z" fill="#666" stroke-width="0"/><path d="m79.13,47.22c-.33,0-.64-.06-.91-.17-.28-.11-.51-.28-.71-.5-.2-.22-.36-.48-.47-.79-.11-.31-.17-.67-.17-1.07,0-.51.08-.99.24-1.45.16-.45.38-.85.66-1.18.28-.34.61-.6.99-.8.38-.2.78-.29,1.22-.29.33,0,.64.06.91.17s.51.28.71.5.36.48.47.79c.11.31.17.67.17,1.06,0,.51-.08.99-.24,1.44s-.38.85-.66,1.19c-.28.34-.61.61-.99.81-.38.2-.79.3-1.22.3Zm.1-.83c.29,0,.56-.08.8-.24.24-.16.44-.37.61-.64.17-.27.3-.57.39-.92.09-.35.14-.71.14-1.09,0-.56-.11-.98-.33-1.26-.22-.28-.54-.42-.96-.42-.3,0-.56.08-.8.24-.24.16-.44.37-.61.63-.17.26-.3.57-.39.92-.09.35-.14.71-.14,1.09,0,.56.11.98.33,1.27.22.29.54.43.96.43Z" fill="#666" stroke-width="0"/><path d="m91.47,41.06l-2.55,6.08h-.81c-.1,0-.16-.07-.18-.2l-.74-4.12c0-.07-.02-.13-.02-.2,0-.06-.01-.13-.02-.19-.04.13-.09.26-.14.4l-1.75,4.12c-.06.14-.14.2-.25.2h-.78l-1.07-6.08h.8c.08,0,.14.02.19.06s.08.09.1.16l.56,3.91c0,.14.02.28.02.41,0,.13.01.26.02.39.04-.13.09-.26.14-.39.05-.13.11-.27.16-.41l1.66-3.94c.02-.06.06-.11.11-.15.06-.04.12-.06.19-.06h.44c.08,0,.14.02.18.06s.07.09.08.15l.68,3.94c.02.14.04.28.05.41.02.13.03.26.04.39.04-.13.08-.26.12-.39s.09-.27.13-.41l1.54-3.91c.02-.06.06-.12.12-.16s.12-.06.19-.06h.77Z" fill="#666" stroke-width="0"/><path d="m96.46,46.01c-.2.21-.4.39-.6.54-.2.15-.4.28-.6.38s-.41.17-.64.22c-.22.05-.46.07-.72.07-.35,0-.66-.06-.94-.17-.28-.12-.51-.28-.7-.5-.19-.21-.34-.47-.44-.78s-.16-.64-.16-1.02c0-.31.03-.62.1-.93.07-.31.16-.6.29-.88s.28-.54.46-.78c.18-.24.39-.45.62-.62.23-.17.49-.31.77-.41.28-.1.58-.15.91-.15s.57.04.8.13c.22.09.41.2.55.34s.25.29.32.45c.07.16.1.32.1.47,0,.26-.05.51-.16.73-.11.22-.31.42-.59.6s-.68.33-1.19.46-1.15.24-1.94.32c0,.04,0,.09,0,.13,0,.04,0,.08,0,.13,0,.54.12.95.35,1.23.23.28.59.42,1.06.42.19,0,.36-.02.51-.06s.28-.09.4-.15c.12-.06.22-.12.31-.19s.17-.13.25-.19c.07-.06.14-.11.21-.15s.13-.06.19-.06c.08,0,.14.03.2.1l.26.33Zm-1.69-4.27c-.25,0-.48.05-.7.16-.21.1-.4.25-.56.43-.16.18-.3.4-.42.64-.12.25-.21.51-.27.79.62-.08,1.11-.16,1.48-.26.37-.1.66-.2.86-.32s.33-.24.4-.37.1-.27.1-.41c0-.07-.02-.15-.05-.22-.03-.08-.08-.15-.15-.21-.07-.06-.16-.12-.27-.16-.11-.04-.25-.06-.41-.06Z" fill="#666" stroke-width="0"/><path d="m98.98,42.75c.16-.34.33-.63.52-.88s.38-.45.58-.59c.2-.14.41-.23.63-.26.22-.03.44,0,.66.1l-.19,1.03c-.52-.21-.98-.13-1.38.23-.4.36-.72,1.01-.97,1.95l-.34,2.81h-1.04l.73-6.08h.53c.24,0,.37.12.37.36l-.1,1.34Z" fill="#666" stroke-width="0"/><path d="m106.16,46.01c-.2.21-.4.39-.6.54-.2.15-.4.28-.6.38s-.41.17-.64.22c-.22.05-.46.07-.72.07-.35,0-.66-.06-.94-.17-.28-.12-.51-.28-.7-.5-.19-.21-.34-.47-.44-.78s-.16-.64-.16-1.02c0-.31.03-.62.1-.93.07-.31.16-.6.29-.88s.28-.54.46-.78c.18-.24.39-.45.62-.62.23-.17.49-.31.77-.41.28-.1.58-.15.91-.15s.57.04.8.13c.22.09.41.2.55.34s.25.29.32.45c.07.16.1.32.1.47,0,.26-.05.51-.16.73-.11.22-.31.42-.59.6s-.68.33-1.19.46-1.15.24-1.94.32c0,.04,0,.09,0,.13,0,.04,0,.08,0,.13,0,.54.12.95.35,1.23.23.28.59.42,1.06.42.19,0,.36-.02.51-.06s.28-.09.4-.15c.12-.06.22-.12.31-.19s.17-.13.25-.19c.07-.06.14-.11.21-.15s.13-.06.19-.06c.08,0,.14.03.2.1l.26.33Zm-1.69-4.27c-.25,0-.48.05-.7.16-.21.1-.4.25-.56.43-.16.18-.3.4-.42.64-.12.25-.21.51-.27.79.62-.08,1.11-.16,1.48-.26.37-.1.66-.2.86-.32s.33-.24.4-.37.1-.27.1-.41c0-.07-.02-.15-.05-.22-.03-.08-.08-.15-.15-.21-.07-.06-.16-.12-.27-.16-.11-.04-.25-.06-.41-.06Z" fill="#666" stroke-width="0"/><path d="m112.99,38.3l-1.09,8.84h-.56c-.14,0-.23-.04-.28-.11-.05-.07-.07-.16-.07-.26l.11-1.28c-.15.26-.32.5-.5.71s-.37.39-.57.55c-.2.15-.4.27-.62.35s-.43.12-.65.12c-.52,0-.92-.19-1.21-.57-.29-.38-.43-.93-.43-1.65,0-.33.03-.66.1-.98.07-.33.17-.64.29-.94.13-.3.28-.58.46-.84.18-.26.38-.48.6-.67.22-.19.46-.34.71-.44.25-.11.52-.16.8-.16.3,0,.57.06.82.18s.46.29.63.5l.41-3.35h1.04Zm-1.55,4.09c-.15-.22-.33-.37-.55-.45-.21-.09-.43-.13-.65-.13-.32,0-.6.09-.85.28-.25.19-.47.43-.65.73-.18.3-.31.63-.41,1-.1.37-.14.73-.14,1.09,0,.48.08.84.25,1.09s.41.38.73.38c.19,0,.39-.06.58-.18s.38-.29.57-.5.35-.47.51-.76c.16-.29.29-.61.41-.96l.2-1.58Z" fill="#666" stroke-width="0"/><path d="m117.97,42.6c.15-.25.31-.47.49-.67.17-.2.36-.37.55-.51.19-.14.39-.25.6-.33.21-.08.42-.12.64-.12.52,0,.92.19,1.21.56.29.38.43.93.43,1.65,0,.33-.03.66-.1.98-.07.33-.16.64-.29.94-.13.3-.28.58-.46.83-.18.26-.38.48-.59.67-.22.19-.46.34-.71.45-.26.11-.52.16-.8.16-.32,0-.62-.07-.88-.2-.26-.14-.48-.33-.65-.58l-.08.39c-.03.1-.07.18-.12.23-.05.05-.13.08-.26.08h-.56l1.07-8.84h1.04l-.52,4.3Zm-.39,3.2c.15.21.33.36.55.45.21.09.43.13.65.13s.4-.04.59-.13.35-.21.5-.36c.15-.15.29-.33.41-.53.12-.2.22-.42.3-.65s.15-.47.19-.71.06-.49.06-.73c0-.48-.08-.84-.25-1.09s-.41-.37-.72-.37c-.19,0-.39.06-.58.18-.2.12-.39.29-.57.5s-.35.47-.51.76c-.16.29-.3.62-.41.96l-.19,1.57Z" fill="#666" stroke-width="0"/><path d="m128.21,41.06l-4.1,7.89c-.04.08-.1.15-.15.19-.06.04-.13.06-.22.06h-.79l1.32-2.42-1.58-5.72h.88c.09,0,.15.02.19.06s.07.1.09.16l.98,3.83c.02.08.04.17.05.25.01.08.02.17.03.25.04-.08.07-.17.11-.25.04-.09.07-.17.11-.25l1.92-3.83c.03-.06.08-.12.14-.15.06-.04.12-.06.18-.06h.85Z" fill="#666" stroke-width="0"/><path d="m136.01,47.02c-.43.14-.89.21-1.37.21-.53,0-1-.09-1.43-.28-.42-.19-.78-.45-1.08-.78-.3-.33-.53-.73-.68-1.19-.16-.46-.24-.96-.24-1.51,0-.73.11-1.4.34-2.02s.54-1.14.95-1.59.88-.79,1.43-1.04c.55-.25,1.15-.37,1.79-.37.53,0,1,.09,1.42.29s.78.45,1.08.79.52.74.68,1.2c.16.46.24.97.24,1.51,0,.48-.05.94-.15,1.37s-.25.83-.43,1.2-.41.7-.68,1-.57.55-.89.76l1.74,2.36h-.91c-.14,0-.26-.02-.36-.06s-.19-.11-.27-.2l-1.18-1.64Zm-3.64-3.59c0,.44.05.83.16,1.18.11.35.27.65.48.9s.46.44.76.57c.3.13.63.2,1,.2.48,0,.91-.09,1.31-.28.4-.19.74-.46,1.02-.81.28-.35.51-.77.66-1.27.16-.5.24-1.06.24-1.67,0-.44-.06-.83-.17-1.19-.11-.35-.27-.66-.48-.9-.21-.25-.46-.44-.76-.58-.3-.14-.63-.2-1-.2-.47,0-.9.09-1.3.29-.39.19-.73.46-1.02.81-.29.35-.51.78-.67,1.28-.16.5-.24,1.05-.24,1.67Z" fill="#666" stroke-width="0"/><path d="m145.41,41.06l-.73,6.08h-.53c-.26,0-.39-.13-.39-.38l.09-1.11c-.32.52-.68.91-1.08,1.18-.4.27-.81.4-1.24.4-.26,0-.48-.05-.68-.15-.2-.1-.35-.25-.48-.45-.12-.2-.21-.44-.25-.72s-.04-.61,0-.98l.46-3.86h1.06l-.46,3.86c-.06.48-.03.83.09,1.06.11.23.33.35.64.35.18,0,.37-.05.57-.15.2-.1.38-.24.56-.43.18-.18.35-.41.51-.67.16-.26.29-.55.41-.87l.38-3.16h1.06Z" fill="#666" stroke-width="0"/><path d="m148.57,47.22c-.33,0-.64-.06-.91-.17-.28-.11-.51-.28-.71-.5-.2-.22-.36-.48-.47-.79-.11-.31-.17-.67-.17-1.07,0-.51.08-.99.24-1.45.16-.45.38-.85.66-1.18.28-.34.61-.6.99-.8.38-.2.78-.29,1.22-.29.33,0,.64.06.91.17s.51.28.71.5.36.48.47.79c.11.31.17.67.17,1.06,0,.51-.08.99-.24,1.44s-.38.85-.66,1.19c-.28.34-.61.61-.99.81-.38.2-.79.3-1.22.3Zm.1-.83c.29,0,.56-.08.8-.24.24-.16.44-.37.61-.64.17-.27.3-.57.39-.92.09-.35.14-.71.14-1.09,0-.56-.11-.98-.33-1.26-.22-.28-.54-.42-.96-.42-.3,0-.56.08-.8.24-.24.16-.44.37-.61.63-.17.26-.3.57-.39.92-.09.35-.14.71-.14,1.09,0,.56.11.98.33,1.27.22.29.54.43.96.43Z" fill="#666" stroke-width="0"/><path d="m152.94,45.99v-.09s0-.09,0-.17c0-.07.02-.17.03-.28.01-.12.03-.27.06-.46l.37-3.04h-.68c-.06,0-.1-.02-.14-.06-.03-.04-.05-.1-.04-.18l.05-.43.94-.13.46-1.88c.02-.06.05-.11.09-.15s.1-.06.16-.06h.56l-.26,2.09h1.6l-.09.77h-1.6l-.37,2.99c-.02.16-.04.3-.05.4-.01.1-.02.18-.03.24,0,.06,0,.1-.01.13,0,.02,0,.04,0,.05,0,.2.05.35.14.45.1.1.22.15.38.15.11,0,.2-.01.28-.04.08-.03.15-.06.21-.1.06-.04.11-.07.15-.1.04-.03.07-.04.1-.04.04,0,.06,0,.08.02.02.02.04.04.05.08l.23.51c-.2.17-.42.31-.67.41-.25.1-.5.15-.75.15-.39,0-.69-.11-.92-.32-.22-.21-.34-.52-.35-.92Z" fill="#666" stroke-width="0"/><path d="m161.4,46.01c-.2.21-.4.39-.6.54-.2.15-.4.28-.6.38s-.41.17-.64.22c-.22.05-.46.07-.72.07-.35,0-.66-.06-.94-.17-.28-.12-.51-.28-.7-.5-.19-.21-.34-.47-.44-.78s-.16-.64-.16-1.02c0-.31.03-.62.1-.93.07-.31.16-.6.29-.88s.28-.54.46-.78c.18-.24.39-.45.62-.62.23-.17.49-.31.77-.41.28-.1.58-.15.91-.15s.57.04.8.13c.22.09.41.2.55.34s.25.29.32.45c.07.16.1.32.1.47,0,.26-.05.51-.16.73-.11.22-.31.42-.59.6s-.68.33-1.19.46-1.15.24-1.94.32c0,.04,0,.09,0,.13,0,.04,0,.08,0,.13,0,.54.12.95.35,1.23.23.28.59.42,1.06.42.19,0,.36-.02.51-.06s.28-.09.4-.15c.12-.06.22-.12.31-.19s.17-.13.25-.19c.07-.06.14-.11.21-.15s.13-.06.19-.06c.08,0,.14.03.2.1l.26.33Zm-1.69-4.27c-.25,0-.48.05-.7.16-.21.1-.4.25-.56.43-.16.18-.3.4-.42.64-.12.25-.21.51-.27.79.62-.08,1.11-.16,1.48-.26.37-.1.66-.2.86-.32s.33-.24.4-.37.1-.27.1-.41c0-.07-.02-.15-.05-.22-.03-.08-.08-.15-.15-.21-.07-.06-.16-.12-.27-.16-.11-.04-.25-.06-.41-.06Z" fill="#666" stroke-width="0"/><path d="m167.11,46.19l-.11.95h-4.52l1.06-8.6h1.12l-.94,7.65h3.4Z" fill="#666" stroke-width="0"/><path d="m171.53,45.53c-.14.26-.3.49-.46.7s-.34.38-.53.53c-.19.15-.38.26-.59.34s-.42.12-.64.12c-.24,0-.46-.05-.65-.14-.2-.09-.36-.23-.5-.41-.14-.18-.25-.41-.32-.67-.08-.27-.11-.57-.11-.92s.05-.71.14-1.05.22-.67.38-.97.37-.58.6-.84.49-.47.78-.66c.29-.19.59-.33.92-.43.33-.1.67-.15,1.03-.15.26,0,.51.02.76.06.25.04.49.12.73.22l-.73,5.88h-.55c-.14,0-.23-.04-.29-.11-.05-.07-.07-.16-.07-.26l.11-1.23Zm.41-3.73c-.09-.02-.18-.03-.26-.04s-.17,0-.25,0c-.24,0-.47.04-.7.12-.22.08-.43.19-.63.33-.2.14-.37.31-.53.5-.16.19-.3.41-.41.64-.11.23-.2.48-.27.74-.06.26-.1.53-.1.81,0,.96.31,1.45.92,1.45.2,0,.39-.06.58-.18s.37-.29.54-.51c.17-.22.33-.48.47-.77s.27-.62.38-.98l.26-2.08Z" fill="#666" stroke-width="0"/><path d="m175.53,42.6c.15-.25.31-.47.49-.67.17-.2.36-.37.55-.51.19-.14.39-.25.6-.33.21-.08.42-.12.64-.12.52,0,.92.19,1.21.56.29.38.43.93.43,1.65,0,.33-.03.66-.1.98-.07.33-.16.64-.29.94-.13.3-.28.58-.46.83-.18.26-.38.48-.59.67-.22.19-.46.34-.71.45-.26.11-.52.16-.8.16-.32,0-.62-.07-.88-.2-.26-.14-.48-.33-.65-.58l-.08.39c-.03.1-.07.18-.12.23-.05.05-.13.08-.26.08h-.56l1.07-8.84h1.04l-.52,4.3Zm-.39,3.2c.15.21.33.36.55.45.21.09.43.13.65.13s.4-.04.59-.13.35-.21.5-.36c.15-.15.29-.33.41-.53.12-.2.22-.42.3-.65s.15-.47.19-.71.06-.49.06-.73c0-.48-.08-.84-.25-1.09s-.41-.37-.72-.37c-.19,0-.39.06-.58.18-.2.12-.39.29-.57.5s-.35.47-.51.76c-.16.29-.3.62-.41.96l-.19,1.57Z" fill="#666" stroke-width="0"/></g></svg>